<?xml version="1.0" encoding="UTF-8"?>
<svg width="512" height="512" version="1.1" viewBox="0 0 512 512" xmlns="http://www.w3.org/2000/svg">
 <defs>
  <linearGradient id="grad" x1="0%" y1="0%" x2="100%" y2="0%">
   <stop offset="0%" style="stop-color:#3B82F6;stop-opacity:1" />
   <stop offset="100%" style="stop-color:#9333EA;stop-opacity:1" />
  </linearGradient>
 </defs>
 <g transform="translate(0,-229.26667)">
  <path d="m256 279.26667c-88.366 0-160 71.634-160 160 0 88.366 71.634 160 160 160 88.366 0 160-71.634 160-160 0-88.366-71.634-160-160-160zm0 40c66.274 0 120 53.726 120 120s-53.726 120-120 120-120-53.726-120-120 53.726-120 120-120z" fill="url(#grad)"/>
  <path d="m256 339.26667v80m-40-40h80m-120 80h160" stroke="url(#grad)" stroke-linecap="round" stroke-width="20"/>
 </g>
</svg>
